<mxfile>
    <diagram id="plSwlZvKvS4Onxrnfley" name="Page-1">
        <mxGraphModel dx="519" dy="617" grid="1" gridSize="10" guides="1" tooltips="1" connect="1" arrows="1" fold="1" page="1" pageScale="1" pageWidth="827" pageHeight="1169" math="0" shadow="0">
            <root>
                <mxCell id="0"/>
                <mxCell id="1" parent="0"/>
                <mxCell id="URiL6SRfAfUINRfHJW9t-1" value="&lt;b&gt;Budget&lt;/b&gt;" style="rounded=0;whiteSpace=wrap;html=1;" parent="1" vertex="1">
                    <mxGeometry x="330" y="290" width="140" height="40" as="geometry"/>
                </mxCell>
                <mxCell id="URiL6SRfAfUINRfHJW9t-2" value="-instance: Budget&lt;br&gt;- constructor()" style="rounded=0;whiteSpace=wrap;html=1;" parent="1" vertex="1">
                    <mxGeometry x="330" y="330" width="140" height="40" as="geometry"/>
                </mxCell>
                <mxCell id="URiL6SRfAfUINRfHJW9t-3" value="+getBalance()" style="rounded=0;whiteSpace=wrap;html=1;" parent="1" vertex="1">
                    <mxGeometry x="330" y="370" width="140" height="50" as="geometry"/>
                </mxCell>
                <mxCell id="URiL6SRfAfUINRfHJW9t-4" value="" style="endArrow=classic;html=1;exitX=1;exitY=0.5;exitDx=0;exitDy=0;entryX=1;entryY=0.5;entryDx=0;entryDy=0;" parent="1" source="URiL6SRfAfUINRfHJW9t-2" target="URiL6SRfAfUINRfHJW9t-1" edge="1">
                    <mxGeometry width="50" height="50" relative="1" as="geometry">
                        <mxPoint x="390" y="320" as="sourcePoint"/>
                        <mxPoint x="440" y="270" as="targetPoint"/>
                        <Array as="points">
                            <mxPoint x="510" y="330"/>
                        </Array>
                    </mxGeometry>
                </mxCell>
            </root>
        </mxGraphModel>
    </diagram>
</mxfile>